<svg width="24" height="24" viewBox="0 0 24 24" fill="none" xmlns="http://www.w3.org/2000/svg">
<g filter="url(#filter0_d_171_2034)">
<path d="M13 0.4375C10.9109 0.4375 8.86878 1.05698 7.13179 2.2176C5.39479 3.37822 4.04097 5.02786 3.24152 6.95791C2.44207 8.88795 2.2329 11.0117 2.64045 13.0606C3.04801 15.1096 4.05399 16.9916 5.53118 18.4688C7.00837 19.946 8.89043 20.952 10.9394 21.3595C12.9883 21.7671 15.112 21.5579 17.0421 20.7585C18.9721 19.959 20.6218 18.6052 21.7824 16.8682C22.943 15.1312 23.5625 13.0891 23.5625 11C23.5595 8.19956 22.4458 5.51466 20.4655 3.53445C18.4853 1.55424 15.8004 0.440457 13 0.4375ZM13.8125 4.43703L16.3302 2.70539C17.7718 3.28603 19.0379 4.2309 20.0048 5.44758L19.1923 8.18367C19.1719 8.18367 19.1506 8.19383 19.1303 8.20094L16.8127 8.95352C16.7779 8.96476 16.744 8.97833 16.7111 8.99414L13.8125 7.00047V4.43703ZM9.67281 2.70539L12.1875 4.43703V7.00047L9.28687 8.9982C9.25397 8.9824 9.22004 8.96882 9.18531 8.95758L6.86765 8.205C6.84734 8.19789 6.82601 8.19281 6.8057 8.18773L5.9932 5.45164C6.96097 4.23277 8.22897 3.2864 9.67281 2.70539ZM8.3525 15.8161H5.47422C4.63168 14.5061 4.14866 12.9975 4.07367 11.4418L6.30804 9.72742C6.32728 9.73588 6.34694 9.74334 6.36695 9.74977L8.68562 10.5034C8.71663 10.5127 8.74817 10.5201 8.78007 10.5257L9.87593 13.7168C9.8607 13.7351 9.84547 13.7534 9.83125 13.7727L8.39922 15.744C8.38238 15.7672 8.36679 15.7912 8.3525 15.8161ZM15.3044 19.6328C13.7945 20.035 12.2055 20.035 10.6955 19.6328L9.67382 16.7484C9.68703 16.7322 9.70125 16.717 9.71343 16.6997L11.1465 14.7273C11.1633 14.7045 11.1789 14.6807 11.1932 14.6562H14.8068C14.8211 14.6807 14.8367 14.7045 14.8535 14.7273L16.2866 16.6997C16.2987 16.717 16.313 16.7322 16.3262 16.7484L15.3044 19.6328ZM17.6475 15.813C17.6332 15.7882 17.6176 15.7641 17.6008 15.7409L16.1677 13.7727C16.1535 13.7534 16.1383 13.7351 16.123 13.7168L17.2189 10.5257C17.2508 10.5201 17.2823 10.5127 17.3134 10.5034L19.632 9.74977C19.652 9.74334 19.6717 9.73588 19.6909 9.72742L21.9253 11.4418C21.8503 12.9975 21.3673 14.5061 20.5248 15.8161L17.6475 15.813Z" fill="white"/>
</g>
<defs>
<filter id="filter0_d_171_2034" x="-1.56251" y="0.4375" width="25.125" height="25.125" filterUnits="userSpaceOnUse" color-interpolation-filters="sRGB">
<feFlood flood-opacity="0" result="BackgroundImageFix"/>
<feColorMatrix in="SourceAlpha" type="matrix" values="0 0 0 0 0 0 0 0 0 0 0 0 0 0 0 0 0 0 127 0" result="hardAlpha"/>
<feOffset dx="-2" dy="2"/>
<feGaussianBlur stdDeviation="1"/>
<feComposite in2="hardAlpha" operator="out"/>
<feColorMatrix type="matrix" values="0 0 0 0 0 0 0 0 0 0 0 0 0 0 0 0 0 0 0.25 0"/>
<feBlend mode="normal" in2="BackgroundImageFix" result="effect1_dropShadow_171_2034"/>
<feBlend mode="normal" in="SourceGraphic" in2="effect1_dropShadow_171_2034" result="shape"/>
</filter>
</defs>
</svg>
