<svg width="24" height="24" viewBox="0 0 24 24" fill="none" xmlns="http://www.w3.org/2000/svg">
<g clip-path="url(#clip0_171_2037)">
<path d="M4 20C4 21.11 4.89 22 6 22L18 22C18.5304 22 19.0391 21.7893 19.4142 21.4142C19.7893 21.0391 20 20.5304 20 20L20 4C20 3.46957 19.7893 2.96086 19.4142 2.58579C19.0391 2.21071 18.5304 2 18 2L6 2C5.46957 2 4.96086 2.21071 4.58579 2.58579C4.21071 2.96086 4 3.46957 4 4L4 20ZM6 20L6 13L8.13 13C8.59 14.76 10.18 16 12 16C12.8858 15.9976 13.746 15.702 14.4461 15.1593C15.1462 14.6166 15.6469 13.8573 15.87 13L18 13L18 20L16 20L16 17L8 17L8 20L6 20ZM6 11L6 4L8 4L8 7L16 7L16 4L18 4L18 11L15.87 11C15.41 9.24 13.82 8 12 8C11.1142 8.00237 10.254 8.29799 9.55393 8.84072C8.85381 9.38344 8.35311 10.1427 8.13 11L6 11ZM10 20L10 19L14 19L14 20L10 20ZM10 5L10 4L14 4L14 5L10 5ZM10.27 11C10.63 10.38 11.29 10 12 10C12.71 10 13.37 10.38 13.73 11L10.27 11ZM10.27 13L13.73 13C13.37 13.62 12.71 14 12 14C11.29 14 10.63 13.62 10.27 13Z" fill="white"/>
</g>
<defs>
<clipPath id="clip0_171_2037">
<rect width="24" height="24" fill="white" transform="translate(24) rotate(90)"/>
</clipPath>
</defs>
</svg>
